<?xml version="1.0" encoding="UTF-8"?>
<svg id="Camada_1" data-name="Camada 1" xmlns="http://www.w3.org/2000/svg" viewBox="0 0 512 512">
  <defs>
    <style>
      .cls-1 {
        fill: #ffbd49;
      }

      .cls-2 {
        fill: #fff;
      }
    </style>
  </defs>
  <g>
    <path class="cls-1" d="M136.44,429.15v-27.25h4.79l9.93,16.15-2.8-.04,10.04-16.11h4.55v27.25h-5.02v-10.24c0-2.33.06-4.44.17-6.31s.32-3.72.6-5.57l.62,1.67-8.45,13.04h-2.57l-8.17-12.92.54-1.79c.29,1.74.49,3.52.6,5.35s.18,4,.18,6.52v10.24h-5.02.01Z"/>
    <path class="cls-1" d="M179.02,429.54c-2.15,0-4.05-.45-5.7-1.36-1.65-.91-2.93-2.15-3.85-3.72-.92-1.57-1.38-3.37-1.38-5.39,0-1.61.26-3.07.78-4.4s1.24-2.47,2.16-3.45c.92-.97,2.02-1.72,3.31-2.26,1.28-.53,2.69-.8,4.22-.8,1.35,0,2.61.26,3.78.78s2.18,1.23,3.04,2.12,1.51,1.96,1.97,3.19.67,2.58.64,4.03l-.04,1.67h-16.62l-.9-3.27h13.51l-.62.66v-.86c-.08-.8-.34-1.51-.78-2.12s-1.01-1.09-1.69-1.44c-.69-.35-1.45-.53-2.28-.53-1.27,0-2.34.25-3.21.74-.87.49-1.52,1.2-1.97,2.12-.44.92-.66,2.07-.66,3.45s.28,2.48.84,3.46,1.35,1.75,2.37,2.28c1.02.53,2.22.8,3.6.8.96,0,1.84-.16,2.65-.47.8-.31,1.67-.87,2.61-1.67l2.37,3.31c-.7.65-1.5,1.2-2.39,1.65-.9.45-1.84.81-2.82,1.07-.99.26-1.96.39-2.92.39l-.02.02Z"/>
    <path class="cls-1" d="M201.01,429.54c-1.92,0-3.65-.47-5.18-1.4s-2.74-2.21-3.62-3.81c-.88-1.61-1.32-3.42-1.32-5.45s.44-3.84,1.32-5.45c.88-1.61,2.09-2.88,3.62-3.81s3.26-1.4,5.18-1.4,3.52.35,5.02,1.05c1.5.7,2.67,1.67,3.5,2.92l-2.65,3.19c-.39-.54-.88-1.04-1.48-1.48-.6-.44-1.23-.79-1.91-1.05-.68-.26-1.35-.39-2.02-.39-1.14,0-2.16.28-3.06.84s-1.6,1.32-2.12,2.3c-.52.97-.78,2.07-.78,3.29s.27,2.31.8,3.27,1.25,1.73,2.16,2.3c.91.57,1.92.86,3.04.86.67,0,1.33-.11,1.97-.33s1.24-.54,1.81-.95,1.1-.93,1.6-1.56l2.65,3.23c-.88,1.14-2.1,2.07-3.64,2.78s-3.17,1.07-4.88,1.07v-.02Z"/>
    <path class="cls-1" d="M220.93,429.54c-1.69,0-3.22-.47-4.59-1.4-1.38-.93-2.48-2.21-3.31-3.81-.83-1.61-1.25-3.44-1.25-5.49s.41-3.88,1.25-5.49c.83-1.61,1.96-2.87,3.39-3.78s3.04-1.36,4.83-1.36c1.04,0,1.98.15,2.84.45.86.3,1.61.72,2.26,1.26s1.19,1.17,1.62,1.87c.43.7.72,1.45.88,2.26l-1.05-.27v-5.14h4.83v20.51h-4.87v-4.9l1.13-.19c-.18.7-.51,1.38-.99,2.04-.48.66-1.08,1.25-1.79,1.75-.71.51-1.51.91-2.37,1.23-.87.31-1.8.47-2.78.47h-.03ZM222.26,425.3c1.12,0,2.1-.27,2.96-.82s1.52-1.3,2-2.28c.48-.97.72-2.1.72-3.37s-.24-2.35-.72-3.31-1.15-1.71-2-2.26-1.84-.82-2.96-.82-2.1.27-2.94.82c-.84.54-1.5,1.3-1.97,2.26-.47.96-.7,2.06-.7,3.31s.23,2.39.7,3.37c.47.97,1.12,1.73,1.97,2.28.84.54,1.82.82,2.94.82Z"/>
    <path class="cls-2" d="M250.48,429.15v-27.25h4.79l9.93,16.15-2.8-.04,10.04-16.11h4.55v27.25h-5.02v-10.24c0-2.33.06-4.44.17-6.31.12-1.87.32-3.72.6-5.57l.62,1.67-8.45,13.04h-2.57l-8.17-12.92.54-1.79c.29,1.74.49,3.52.6,5.35.11,1.83.18,4,.18,6.52v10.24h-5.02,0Z"/>
    <path class="cls-2" d="M292.82,429.54c-2.05,0-3.88-.46-5.49-1.38s-2.88-2.19-3.81-3.79c-.93-1.61-1.4-3.44-1.4-5.49s.47-3.88,1.4-5.49,2.21-2.87,3.81-3.79c1.61-.92,3.44-1.38,5.49-1.38s3.84.46,5.45,1.38c1.61.92,2.87,2.19,3.79,3.79.92,1.61,1.38,3.44,1.38,5.49s-.46,3.88-1.38,5.49-2.19,2.87-3.79,3.79c-1.61.92-3.42,1.38-5.45,1.38ZM292.82,425.3c1.12,0,2.11-.29,2.98-.86.87-.57,1.56-1.34,2.06-2.3s.75-2.05.72-3.27c.03-1.25-.21-2.35-.72-3.31s-1.19-1.72-2.06-2.28-1.86-.84-2.98-.84-2.12.28-3.02.84-1.59,1.32-2.08,2.3c-.49.97-.74,2.07-.74,3.29s.25,2.31.74,3.27,1.19,1.73,2.08,2.3c.89.57,1.9.86,3.02.86ZM289.94,405.8l-1.52-2.3,6.07-5.06,2.65,3.46-7.2,3.89h0Z"/>
    <path class="cls-2" d="M313.72,429.15l-8.64-20.51h5.22l5.84,15.33-1.01.27,6.15-15.61h5.1l-9.07,20.51h-3.59Z"/>
    <path class="cls-2" d="M338.91,429.54c-2.15,0-4.05-.45-5.7-1.36-1.65-.91-2.93-2.15-3.85-3.72s-1.38-3.37-1.38-5.39c0-1.61.26-3.07.78-4.4.52-1.32,1.24-2.47,2.16-3.45.92-.97,2.02-1.72,3.31-2.26,1.28-.53,2.69-.8,4.22-.8,1.35,0,2.61.26,3.78.78s2.18,1.23,3.04,2.12,1.51,1.96,1.97,3.19.67,2.58.64,4.03l-.04,1.67h-16.62l-.89-3.27h13.51l-.62.66v-.86c-.08-.8-.34-1.51-.78-2.12s-1.01-1.09-1.69-1.44-1.45-.53-2.28-.53c-1.27,0-2.34.25-3.21.74s-1.52,1.2-1.96,2.12c-.44.92-.66,2.07-.66,3.45s.28,2.48.84,3.46c.56.99,1.35,1.75,2.37,2.28,1.03.53,2.22.8,3.6.8.96,0,1.84-.16,2.65-.47.8-.31,1.67-.87,2.61-1.67l2.38,3.31c-.7.65-1.5,1.2-2.39,1.65-.89.45-1.84.81-2.82,1.07-.99.26-1.96.39-2.92.39l-.05.02Z"/>
    <path class="cls-2" d="M354.98,404.28c-.96,0-1.71-.24-2.24-.72s-.8-1.16-.8-2.04c0-.83.27-1.5.82-2.02.54-.52,1.28-.78,2.22-.78.99,0,1.74.24,2.28.72.53.48.8,1.17.8,2.08,0,.8-.27,1.47-.82,1.99-.54.52-1.3.78-2.26.78h0ZM352.64,429.15v-20.51h4.79v20.51h-4.79Z"/>
    <path class="cls-2" d="M370.35,429.54c-1.82,0-3.44-.31-4.88-.92s-2.61-1.49-3.52-2.63l3.11-2.69c.78.88,1.65,1.52,2.61,1.91s1.97.58,3.04.58c.44,0,.84-.05,1.19-.16.35-.1.66-.26.92-.47s.46-.45.6-.72.21-.58.21-.91c0-.62-.23-1.12-.7-1.48-.26-.18-.67-.38-1.23-.58-.56-.21-1.28-.41-2.16-.62-1.4-.36-2.57-.79-3.5-1.27-.93-.48-1.66-1.02-2.18-1.62-.44-.49-.77-1.05-.99-1.67-.22-.62-.33-1.3-.33-2.02,0-.91.2-1.73.6-2.47s.95-1.38,1.65-1.93c.7-.54,1.52-.96,2.45-1.25.93-.29,1.91-.43,2.92-.43s2.04.13,3.02.39c.97.26,1.88.63,2.72,1.11.84.48,1.56,1.06,2.16,1.73l-2.65,2.92c-.49-.47-1.03-.88-1.62-1.25-.58-.36-1.17-.65-1.77-.88-.6-.22-1.16-.33-1.67-.33s-.93.05-1.32.14c-.39.09-.71.23-.97.41s-.46.41-.6.68-.21.59-.21.95c.03.31.11.6.25.88.14.27.34.5.6.68.29.18.71.39,1.29.62.57.23,1.31.45,2.22.66,1.27.34,2.34.71,3.19,1.13.86.42,1.53.9,2.02,1.44.49.47.84,1.01,1.05,1.63s.31,1.31.31,2.06c0,1.22-.34,2.31-1.03,3.27s-1.62,1.71-2.8,2.26-2.51.82-3.99.82v.03Z"/>
  </g>
  <path class="cls-1" d="M200.39,326v-126.1c.23-.16.45-.31.68-.46,18.7,18.65,37.4,37.29,55.99,55.83,28.55-28.39,56.93-56.6,85.63-85.13.1,1.1.24,1.82.24,2.53.01,39.76,0,79.54.06,119.3,0,2.01-.61,3.37-2.12,4.56-3.78,2.97-7.49,6.03-11.84,9.54v-101.1c-23.77,23.84-47.35,47.49-71.45,71.65-14.63-14.76-28.52-28.76-42.87-43.24v119.45c-5.32-1.92-10.16-3.55-14.93-5.41-3.41-1.34-6.74-2.92-10.03-4.56-1.56-.79-2.45-.55-3.46.85-2.78,3.86-5.87,7.52-8.5,11.47-1.31,1.97-2.96,2.79-5.06,3.04-3.97.46-6.88-2.14-9.34-4.42-1.89-1.75-1.98-4.79-.52-7.71,2.45-4.94,4.34-10.15,6.45-15.2-4.93-3.95-9.64-7.74-14.74-11.82-3.6,2.82-7.3,5.76-11.04,8.62-2.46,1.87-4.53,4.42-8.27,3.83-3.93-.62-9.54-7.36-8.44-11.05.59-1.97,2.32-3.62,3.65-5.35,2.6-3.38,5.21-6.76,7.92-10.05,1.05-1.27.85-2.15-.09-3.34-2.89-3.67-5.76-7.36-8.44-11.18-1.07-1.52-1.93-1.8-3.61-1.05-5.06,2.26-10.19,4.33-15.3,6.49-2.55,1.08-6.23.18-7.43-2.24-1.37-2.78-4.6-5.03-3.12-8.78.54-1.38,1.21-2.94,2.31-3.83,4.08-3.31,8.31-6.45,12.6-9.48,2-1.41,2.25-2.69,1.18-4.91-1.81-3.75-3.39-7.64-4.69-11.59-.73-2.22-1.85-2.66-3.91-2.33-5.28.85-10.55,1.74-15.87,2.25-1.65.16-3.66-.45-5.09-1.36-3.37-2.18-4.34-10.73-1.75-13.68.48-.55,1.31-.85,2.03-1.14,5.03-2.05,10.04-4.22,15.16-6.04,2.53-.9,3-2.21,2.53-4.69-.73-3.89-1.34-7.86-1.44-11.81-.07-2.61-1.36-3.16-3.38-3.4-5.4-.65-10.8-1.35-16.21-1.95-3.01-.33-5.64-2.82-5.48-5.83.16-2.96-.86-6,1.26-8.9,2.18-3,5.3-2.32,8.06-2.79,5.05-.87,10.17-1.3,15.37-1.93.86-5.65,1.77-11.11,2.43-16.6.07-.64-1.03-1.76-1.81-2.09-5.36-2.3-10.79-4.44-16.19-6.66-2.95-1.21-4.62-4.48-3.74-7.57.89-3.15.89-6.87,4.65-8.43.84-.35,1.83-.63,2.7-.51,5.99.76,11.95,1.63,17.92,2.5,1.82.26,2.85-.26,3.54-2.17,1.45-4.01,3.14-7.93,4.94-11.8.82-1.77.6-2.76-1-3.91-4.8-3.51-9.49-7.18-14.22-10.78-2.12-1.62-2.95-5.29-1.51-7.58,1.73-2.75,2.46-6.5,6.46-7.16,1.16-.19,2.52-.27,3.57.15,5.52,2.2,10.99,4.51,16.4,6.94,1.81.82,2.76.51,3.91-1.11,2.93-4.11,6.1-8.05,9.28-12.2-4.13-5.33-8.27-10.64-12.39-15.96-1.64-2.11-1.54-5.78.27-7.76,1.2-1.32,2.47-2.59,3.76-3.82,2.04-1.96,5.55-2.21,7.84-.46,5.37,4.08,10.69,8.22,16.1,12.39,4.52-3.39,9-6.67,13.31-10.12.48-.39.38-2,.04-2.84-2.15-5.32-4.45-10.58-6.69-15.87-1.55-3.65-.5-6.71,3.01-8.69,2.7-1.52,5.19-3.98,8.7-2.22.97.49,2.06,1.05,2.71,1.87,4.1,5.21,8.1,10.51,12.25,15.94,5.5-2.29,10.93-4.54,16.53-6.88-.87-6.18-1.61-12.25-2.61-18.29-.75-4.57.92-7.53,5.32-8.67,1.34-.35,2.67-.71,4.02-1.04,2.62-.64,5.87,1.13,6.9,3.66,2.26,5.59,4.58,11.17,6.8,16.77.61,1.52,1.26,2.06,3.09,1.71,3.98-.75,8.02-1.19,12.05-1.53,2.61-.22,3.79-1.24,4.01-3.97.44-5.53,1.14-11.02,1.85-16.52.41-3.16,3.37-5.5,6.66-5.51.8,0,1.59.01,2.39,0,5.65-.05,7.81,1.9,8.43,7.53.59,5.31,1.15,10.62,1.91,15.9.12.8,1.11,1.97,1.85,2.09,4.96.86,9.96,1.55,14.97,2.09.58.06,1.57-1,1.89-1.75,2.37-5.55,4.55-11.18,6.96-16.71.5-1.14,1.54-2.28,2.63-2.88,4.16-2.28,11.71-.01,13.32,4.36.76,2.09.06,4.79-.23,7.18-.58,4.71-1.4,9.39-1.94,14.1-.07.65.77,1.77,1.45,2.06,4.9,2.12,9.86,4.1,15.05,6.23,3.79-5.05,7.67-10.16,11.49-15.32,2.32-3.13,5.33-3.91,8.73-2.01,2.61,1.45,5.91,2.26,6.49,5.9.2,1.27.44,2.74,0,3.86-2.17,5.53-4.5,10.99-6.91,16.41-.75,1.71-.37,2.62,1.09,3.65,3.63,2.61,7.2,5.31,10.68,8.11,1.26,1.02,2.11,1.02,3.33.04,4.5-3.59,9.09-7.07,13.59-10.64,2.91-2.31,6.43-2.28,8.93.46,2.1,2.3,5.61,3.88,4.71,7.97-.24,1.1-.45,2.32-1.09,3.18-3.91,5.24-7.95,10.39-12,15.63,3.43,4.5,6.72,8.96,10.24,13.25.45.55,2.17.53,3.06.18,5.14-2.05,10.32-4.07,15.27-6.54,2.71-1.35,4.8-.45,6.89.75,2.59,1.49,5.06,8.24,4.14,11.06-.33,1.04-1.11,2.08-1.98,2.75-4.53,3.55-9.11,7.05-13.77,10.43-1.47,1.06-1.51,1.98-.84,3.49,1.87,4.17,3.71,8.36,5.33,12.62.69,1.8,1.63,2.12,3.38,1.84,5.86-.92,11.72-1.94,17.62-2.4,1.62-.13,4.35,1.16,4.9,2.49,1.39,3.42,3.72,7.07,1.52,10.97-.7,1.25-1.97,2.47-3.27,3.05-4.97,2.19-10.06,4.14-15.14,6.09-1.78.68-2.34,1.55-1.97,3.57.95,5.07,1.57,10.18,2.39,15.72,4.66.6,9.47,1.03,14.21,1.88,2.94.53,6.3-.35,8.57,2.91,2.5,3.59,1.85,11.7-1.86,13.89-1.67.98-3.97.99-6.01,1.26-3.93.5-7.87.93-11.82,1.28-2.36.2-3.38,1.06-3.48,3.67-.15,4.05-.81,8.09-1.47,12.11-.37,2.24-.23,3.56,2.34,4.43,4.68,1.58,9.12,3.85,13.79,5.48,2.61.91,3.76,2.72,4.45,5.05.94,3.17-2.07,10.13-5.13,11.34-1.44.57-3.3.4-4.92.19-4.79-.61-9.57-1.47-14.37-2.02-.73-.08-2.02.7-2.31,1.4-2,4.75-3.89,9.55-5.59,14.41-.26.76.31,2.28,1,2.84,3.84,3.13,7.77,6.19,11.83,9.03,2.01,1.41,2.85,3.07,2.91,5.44.1,4.06-4.44,9.94-8.38,10.47-.69.09-1.49-.29-2.18-.59-4.75-1.97-9.51-3.91-14.22-6.01-1.57-.7-2.38-.44-3.37,1-2.83,4.08-5.8,8.07-8.87,11.97-1.08,1.37-1.07,2.21.03,3.55,3.08,3.77,5.99,7.67,8.95,11.52,1.97,2.55,1.81,6.29-.58,8.53-2.17,2.03-3.67,5.29-7.39,4.83-1.48-.19-3.12-.61-4.29-1.45-3.85-2.79-7.49-5.88-11.33-8.71-.63-.47-2.15-.61-2.7-.19-4.73,3.61-9.33,7.4-14.22,11.34,1.87,4.38,3.83,8.9,5.76,13.43,2.07,4.91,1.28,7.31-3.33,10.04-2.44,1.44-4.77,3.5-7.91,1.92-1.08-.54-2.29-1.12-3.01-2.02-2.67-3.33-5.25-6.72-7.67-10.24-1.41-2.04-2.61-2.48-5.07-1.38-6.94,3.1-14.07,5.77-21.57,8.79v-3.12c0-30.81-.03-61.64.07-92.46,0-1.56.83-3.44,1.89-4.6,3.73-4.06,7.71-7.87,12.1-12.27v84.19c1.39-.6,2.39-.96,3.33-1.43,12.05-6.07,23.34-13.36,33.15-22.61,8.95-8.45,15.71-18.69,21.74-29.38,11.5-20.41,18.15-42.36,19.33-65.71.62-12.26-2.14-24.29-5.46-36.09-6.34-22.45-17.2-42.52-32.75-59.89-7-7.82-15.74-13.67-24.66-19.13-16.79-10.28-34.77-17.58-54.36-20.12-29.46-3.81-57.31,1.73-83.4,15.9-36.71,19.94-57.87,51.38-67.06,91.44-1.86,8.09-3.17,16.45-3.46,24.73-.4,11.25,1.92,22.33,4.83,33.2,6.25,23.34,17.22,44.24,33.42,62.16,8.66,9.58,19.57,16.49,30.83,22.74,3.27,1.81,6.64,3.42,10.63,5.46v-.02Z"/>
  <path class="cls-2" d="M182.34,305.81c-4.36-3.69-8.8-7.31-13.03-11.15-.7-.64-.71-2.25-.71-3.42-.03-50.68-.02-101.36-.02-152.05v-17.51c29.85,29.79,59.23,59.09,88.8,88.6,29.39-29.49,58.54-58.72,87.68-87.97.29.12.57.25.87.37,0,4.76-.29,9.54.09,14.27.34,4.17-1.14,6.97-4.07,9.87-27.65,27.3-55.14,54.76-82.68,82.17-.57.56-1.19,1.08-1.96,1.79-24.51-24.39-48.94-48.69-74-73.62v148.11c-.31.18-.64.37-.95.55h-.01Z"/>
</svg>