<?xml version="1.0" encoding="UTF-8"?>
<svg id="Camada_1" data-name="Camada 1" xmlns="http://www.w3.org/2000/svg" viewBox="0 0 512 512">
  <defs>
    <style>
      .cls-1 {
        fill: #ffbd49;
      }

      .cls-2 {
        fill: #fff;
      }
    </style>
  </defs>
  <path class="cls-1" d="M135.14,271.15v-27.25h4.79l9.93,16.15-2.8-.04,10.04-16.11h4.55v27.25h-5.02v-10.24c0-2.33.06-4.44.17-6.31s.32-3.72.6-5.57l.62,1.67-8.45,13.04h-2.57l-8.17-12.92.54-1.79c.29,1.74.49,3.52.6,5.35s.18,4,.18,6.52v10.24h-5.02.01Z"/>
  <path class="cls-1" d="M177.72,271.54c-2.15,0-4.05-.45-5.7-1.36-1.65-.91-2.93-2.15-3.85-3.72-.92-1.57-1.38-3.37-1.38-5.39,0-1.61.26-3.07.78-4.4s1.24-2.47,2.16-3.45c.92-.97,2.02-1.72,3.31-2.26,1.28-.53,2.69-.8,4.22-.8,1.35,0,2.61.26,3.78.78s2.18,1.23,3.04,2.12,1.51,1.96,1.97,3.19.67,2.58.64,4.03l-.04,1.67h-16.62l-.9-3.27h13.51l-.62.66v-.86c-.08-.8-.34-1.51-.78-2.12s-1.01-1.09-1.69-1.44c-.69-.35-1.45-.53-2.28-.53-1.27,0-2.34.25-3.21.74-.87.49-1.52,1.2-1.97,2.12-.44.92-.66,2.07-.66,3.45s.28,2.48.84,3.46,1.35,1.75,2.37,2.28c1.02.53,2.22.8,3.6.8.96,0,1.84-.16,2.65-.47.8-.31,1.67-.87,2.61-1.67l2.37,3.31c-.7.65-1.5,1.2-2.39,1.65-.9.45-1.84.81-2.82,1.07-.99.26-1.96.39-2.92.39l-.02.02Z"/>
  <path class="cls-1" d="M199.71,271.54c-1.92,0-3.65-.47-5.18-1.4s-2.74-2.21-3.62-3.81c-.88-1.61-1.32-3.42-1.32-5.45s.44-3.84,1.32-5.45c.88-1.61,2.09-2.88,3.62-3.81s3.26-1.4,5.18-1.4,3.52.35,5.02,1.05c1.5.7,2.67,1.67,3.5,2.92l-2.65,3.19c-.39-.54-.88-1.04-1.48-1.48-.6-.44-1.23-.79-1.91-1.05-.68-.26-1.35-.39-2.02-.39-1.14,0-2.16.28-3.06.84s-1.6,1.32-2.12,2.3c-.52.97-.78,2.07-.78,3.29s.27,2.31.8,3.27,1.25,1.73,2.16,2.3c.91.57,1.92.86,3.04.86.67,0,1.33-.11,1.97-.33s1.24-.54,1.81-.95,1.1-.93,1.6-1.56l2.65,3.23c-.88,1.14-2.1,2.07-3.64,2.78s-3.17,1.07-4.88,1.07v-.02Z"/>
  <path class="cls-1" d="M219.63,271.54c-1.69,0-3.22-.47-4.59-1.4-1.38-.93-2.48-2.21-3.31-3.81-.83-1.61-1.25-3.44-1.25-5.49s.41-3.88,1.25-5.49c.83-1.61,1.96-2.87,3.39-3.78s3.04-1.36,4.83-1.36c1.04,0,1.98.15,2.84.45.86.3,1.61.72,2.26,1.26s1.19,1.17,1.62,1.87c.43.7.72,1.45.88,2.26l-1.05-.27v-5.14h4.83v20.51h-4.87v-4.9l1.13-.19c-.18.7-.51,1.38-.99,2.04-.48.66-1.08,1.25-1.79,1.75-.71.51-1.51.91-2.37,1.23-.87.31-1.8.47-2.78.47h-.03ZM220.96,267.3c1.12,0,2.1-.27,2.96-.82s1.52-1.3,2-2.28c.48-.97.72-2.1.72-3.37s-.24-2.35-.72-3.31-1.15-1.71-2-2.26-1.84-.82-2.96-.82-2.1.27-2.94.82c-.84.54-1.5,1.3-1.97,2.26-.47.96-.7,2.06-.7,3.31s.23,2.39.7,3.37c.47.97,1.12,1.73,1.97,2.28.84.54,1.82.82,2.94.82Z"/>
  <path class="cls-2" d="M249.18,271.15v-27.25h4.79l9.93,16.15-2.8-.04,10.04-16.11h4.55v27.25h-5.02v-10.24c0-2.33.06-4.44.17-6.31.12-1.87.32-3.72.6-5.57l.62,1.67-8.45,13.04h-2.57l-8.17-12.92.54-1.79c.29,1.74.49,3.52.6,5.35.11,1.83.18,4,.18,6.52v10.24h-5.02,0Z"/>
  <path class="cls-2" d="M291.52,271.54c-2.05,0-3.88-.46-5.49-1.38s-2.88-2.19-3.81-3.79c-.93-1.61-1.4-3.44-1.4-5.49s.47-3.88,1.4-5.49,2.21-2.87,3.81-3.79c1.61-.92,3.44-1.38,5.49-1.38s3.84.46,5.45,1.38c1.61.92,2.87,2.19,3.79,3.79.92,1.61,1.38,3.44,1.38,5.49s-.46,3.88-1.38,5.49-2.19,2.87-3.79,3.79c-1.61.92-3.42,1.38-5.45,1.38ZM291.52,267.3c1.12,0,2.11-.29,2.98-.86.87-.57,1.56-1.34,2.06-2.3s.75-2.05.72-3.27c.03-1.25-.21-2.35-.72-3.31s-1.19-1.72-2.06-2.28-1.86-.84-2.98-.84-2.12.28-3.02.84-1.59,1.32-2.08,2.3c-.49.97-.74,2.07-.74,3.29s.25,2.31.74,3.27,1.19,1.73,2.08,2.3c.89.57,1.9.86,3.02.86ZM288.64,247.8l-1.52-2.3,6.07-5.06,2.65,3.46-7.2,3.89h0Z"/>
  <path class="cls-2" d="M312.42,271.15l-8.64-20.51h5.22l5.84,15.33-1.01.27,6.15-15.61h5.1l-9.07,20.51h-3.59Z"/>
  <path class="cls-2" d="M337.61,271.54c-2.15,0-4.05-.45-5.7-1.36-1.65-.91-2.93-2.15-3.85-3.72s-1.38-3.37-1.38-5.39c0-1.61.26-3.07.78-4.4.52-1.32,1.24-2.47,2.16-3.45.92-.97,2.02-1.72,3.31-2.26,1.28-.53,2.69-.8,4.22-.8,1.35,0,2.61.26,3.78.78s2.18,1.23,3.04,2.12,1.51,1.96,1.97,3.19.67,2.58.64,4.03l-.04,1.67h-16.62l-.89-3.27h13.51l-.62.66v-.86c-.08-.8-.34-1.51-.78-2.12s-1.01-1.09-1.69-1.44-1.45-.53-2.28-.53c-1.27,0-2.34.25-3.21.74s-1.52,1.2-1.96,2.12c-.44.92-.66,2.07-.66,3.45s.28,2.48.84,3.46c.56.99,1.35,1.75,2.37,2.28,1.03.53,2.22.8,3.6.8.96,0,1.84-.16,2.65-.47.8-.31,1.67-.87,2.61-1.67l2.38,3.31c-.7.65-1.5,1.2-2.39,1.65-.89.45-1.84.81-2.82,1.07-.99.26-1.96.39-2.92.39l-.05.02Z"/>
  <path class="cls-2" d="M353.68,246.28c-.96,0-1.71-.24-2.24-.72s-.8-1.16-.8-2.04c0-.83.27-1.5.82-2.02.54-.52,1.28-.78,2.22-.78.99,0,1.74.24,2.28.72.53.48.8,1.17.8,2.08,0,.8-.27,1.47-.82,1.99-.54.52-1.3.78-2.26.78h0ZM351.34,271.15v-20.51h4.79v20.51h-4.79Z"/>
  <path class="cls-2" d="M369.05,271.54c-1.82,0-3.44-.31-4.88-.92s-2.61-1.49-3.52-2.63l3.11-2.69c.78.88,1.65,1.52,2.61,1.91s1.97.58,3.04.58c.44,0,.84-.05,1.19-.16.35-.1.66-.26.92-.47s.46-.45.6-.72.21-.58.21-.91c0-.62-.23-1.12-.7-1.48-.26-.18-.67-.38-1.23-.58-.56-.21-1.28-.41-2.16-.62-1.4-.36-2.57-.79-3.5-1.27-.93-.48-1.66-1.02-2.18-1.62-.44-.49-.77-1.05-.99-1.67-.22-.62-.33-1.3-.33-2.02,0-.91.2-1.73.6-2.47s.95-1.38,1.65-1.93c.7-.54,1.52-.96,2.45-1.25.93-.29,1.91-.43,2.92-.43s2.04.13,3.02.39c.97.26,1.88.63,2.72,1.11.84.48,1.56,1.06,2.16,1.73l-2.65,2.92c-.49-.47-1.03-.88-1.62-1.25-.58-.36-1.17-.65-1.77-.88-.6-.22-1.16-.33-1.67-.33s-.93.05-1.32.14c-.39.09-.71.23-.97.41s-.46.41-.6.68-.21.59-.21.95c.03.31.11.6.25.88.14.27.34.5.6.68.29.18.71.39,1.29.62.57.23,1.31.45,2.22.66,1.27.34,2.34.71,3.19,1.13.86.42,1.53.9,2.02,1.44.49.47.84,1.01,1.05,1.63s.31,1.31.31,2.06c0,1.22-.34,2.31-1.03,3.27s-1.62,1.71-2.8,2.26-2.51.82-3.99.82v.03Z"/>
</svg>