<?xml version="1.0" encoding="UTF-8"?>
<svg id="Camada_1" xmlns="http://www.w3.org/2000/svg" version="1.1" viewBox="0 0 512 512">
  <!-- Generator: Adobe Illustrator 30.4.0, SVG Export Plug-In . SVG Version: 2.1.4 Build 226)  -->
  <g>
    <path d="M131.16,601.85v-27.25h4.79l9.93,16.15-2.8-.04,10.04-16.11h4.55v27.25h-5.02v-10.24c0-2.33.06-4.44.17-6.31s.32-3.72.6-5.57l.62,1.67-8.45,13.04h-2.57l-8.17-12.92.54-1.79c.29,1.74.49,3.52.6,5.35s.18,4,.18,6.52v10.24h-5.02.01Z" fill="#fcbe11"/>
    <path d="M173.74,602.24c-2.15,0-4.05-.45-5.7-1.36-1.65-.91-2.93-2.15-3.85-3.72-.92-1.57-1.38-3.37-1.38-5.39,0-1.61.26-3.07.78-4.4s1.24-2.47,2.16-3.45c.92-.97,2.02-1.72,3.31-2.26,1.28-.53,2.69-.8,4.22-.8,1.35,0,2.61.26,3.78.78s2.18,1.23,3.04,2.12,1.51,1.96,1.97,3.19.67,2.58.64,4.03l-.04,1.67h-16.62l-.9-3.27h13.51l-.62.66v-.86c-.08-.8-.34-1.51-.78-2.12s-1.01-1.09-1.69-1.44c-.69-.35-1.45-.53-2.28-.53-1.27,0-2.34.25-3.21.74-.87.49-1.52,1.2-1.97,2.12-.44.92-.66,2.07-.66,3.45s.28,2.48.84,3.46,1.35,1.75,2.37,2.28c1.02.53,2.22.8,3.6.8.96,0,1.84-.16,2.65-.47.8-.31,1.67-.87,2.61-1.67l2.37,3.31c-.7.65-1.5,1.2-2.39,1.65-.9.45-1.84.81-2.82,1.07-.99.26-1.96.39-2.92.39l-.02.02Z" fill="#fcbe11"/>
    <path d="M195.73,602.24c-1.92,0-3.65-.47-5.18-1.4s-2.74-2.21-3.62-3.81c-.88-1.61-1.32-3.42-1.32-5.45s.44-3.84,1.32-5.45c.88-1.61,2.09-2.88,3.62-3.81s3.26-1.4,5.18-1.4,3.52.35,5.02,1.05c1.5.7,2.67,1.67,3.5,2.92l-2.65,3.19c-.39-.54-.88-1.04-1.48-1.48-.6-.44-1.23-.79-1.91-1.05-.68-.26-1.35-.39-2.02-.39-1.14,0-2.16.28-3.06.84s-1.6,1.32-2.12,2.3c-.52.97-.78,2.07-.78,3.29s.27,2.31.8,3.27,1.25,1.73,2.16,2.3c.91.57,1.92.86,3.04.86.67,0,1.33-.11,1.97-.33s1.24-.54,1.81-.95,1.1-.93,1.6-1.56l2.65,3.23c-.88,1.14-2.1,2.07-3.64,2.78s-3.17,1.07-4.88,1.07v-.02Z" fill="#fcbe11"/>
    <path d="M215.65,602.24c-1.69,0-3.22-.47-4.59-1.4-1.38-.93-2.48-2.21-3.31-3.81-.83-1.61-1.25-3.44-1.25-5.49s.41-3.88,1.25-5.49c.83-1.61,1.96-2.87,3.39-3.78s3.04-1.36,4.83-1.36c1.04,0,1.98.15,2.84.45.86.3,1.61.72,2.26,1.26s1.19,1.17,1.62,1.87c.43.7.72,1.45.88,2.26l-1.05-.27v-5.14h4.83v20.51h-4.87v-4.9l1.13-.19c-.18.7-.51,1.38-.99,2.04-.48.66-1.08,1.25-1.79,1.75-.71.51-1.51.91-2.37,1.23-.87.31-1.8.47-2.78.47h-.03ZM216.98,598c1.12,0,2.1-.27,2.96-.82s1.52-1.3,2-2.28c.48-.97.72-2.1.72-3.37s-.24-2.35-.72-3.31-1.15-1.71-2-2.26-1.84-.82-2.96-.82-2.1.27-2.94.82c-.84.54-1.5,1.3-1.97,2.26-.47.96-.7,2.06-.7,3.31s.23,2.39.7,3.37c.47.97,1.12,1.73,1.97,2.28.84.54,1.82.82,2.94.82Z" fill="#fcbe11"/>
    <path d="M245.2,601.85v-27.25h4.79l9.93,16.15-2.8-.04,10.04-16.11h4.55v27.25h-5.02v-10.24c0-2.33.06-4.44.17-6.31.12-1.87.32-3.72.6-5.57l.62,1.67-8.45,13.04h-2.57l-8.17-12.92.54-1.79c.29,1.74.49,3.52.6,5.35.11,1.83.18,4,.18,6.52v10.24h-5.02,0Z"/>
    <path d="M287.54,602.24c-2.05,0-3.88-.46-5.49-1.38s-2.88-2.19-3.81-3.79c-.93-1.61-1.4-3.44-1.4-5.49s.47-3.88,1.4-5.49,2.21-2.87,3.81-3.79c1.61-.92,3.44-1.38,5.49-1.38s3.84.46,5.45,1.38c1.61.92,2.87,2.19,3.79,3.79.92,1.61,1.38,3.44,1.38,5.49s-.46,3.88-1.38,5.49-2.19,2.87-3.79,3.79c-1.61.92-3.42,1.38-5.45,1.38ZM287.54,598c1.12,0,2.11-.29,2.98-.86.87-.57,1.56-1.34,2.06-2.3s.75-2.05.72-3.27c.03-1.25-.21-2.35-.72-3.31s-1.19-1.72-2.06-2.28-1.86-.84-2.98-.84-2.12.28-3.02.84-1.59,1.32-2.08,2.3c-.49.97-.74,2.07-.74,3.29s.25,2.31.74,3.27,1.19,1.73,2.08,2.3c.89.57,1.9.86,3.02.86ZM284.66,578.5l-1.52-2.3,6.07-5.06,2.65,3.46-7.2,3.89h0Z"/>
    <path d="M308.44,601.85l-8.64-20.51h5.22l5.84,15.33-1.01.27,6.15-15.61h5.1l-9.07,20.51h-3.59Z"/>
    <path d="M333.63,602.24c-2.15,0-4.05-.45-5.7-1.36-1.65-.91-2.93-2.15-3.85-3.72s-1.38-3.37-1.38-5.39c0-1.61.26-3.07.78-4.4.52-1.32,1.24-2.47,2.16-3.45.92-.97,2.02-1.72,3.31-2.26,1.28-.53,2.69-.8,4.22-.8,1.35,0,2.61.26,3.78.78s2.18,1.23,3.04,2.12,1.51,1.96,1.97,3.19.67,2.58.64,4.03l-.04,1.67h-16.62l-.89-3.27h13.51l-.62.66v-.86c-.08-.8-.34-1.51-.78-2.12s-1.01-1.09-1.69-1.44-1.45-.53-2.28-.53c-1.27,0-2.34.25-3.21.74s-1.52,1.2-1.96,2.12c-.44.92-.66,2.07-.66,3.45s.28,2.48.84,3.46c.56.99,1.35,1.75,2.37,2.28,1.03.53,2.22.8,3.6.8.96,0,1.84-.16,2.65-.47.8-.31,1.67-.87,2.61-1.67l2.38,3.31c-.7.65-1.5,1.2-2.39,1.65-.89.45-1.84.81-2.82,1.07-.99.26-1.96.39-2.92.39l-.05.02Z"/>
    <path d="M349.7,576.98c-.96,0-1.71-.24-2.24-.72s-.8-1.16-.8-2.04c0-.83.27-1.5.82-2.02.54-.52,1.28-.78,2.22-.78.99,0,1.74.24,2.28.72.53.48.8,1.17.8,2.08,0,.8-.27,1.47-.82,1.99-.54.52-1.3.78-2.26.78h0ZM347.36,601.85v-20.51h4.79v20.51h-4.79Z"/>
    <path d="M365.07,602.24c-1.82,0-3.44-.31-4.88-.92s-2.61-1.49-3.52-2.63l3.11-2.69c.78.88,1.65,1.52,2.61,1.91s1.97.58,3.04.58c.44,0,.84-.05,1.19-.16.35-.1.66-.26.92-.47s.46-.45.6-.72.21-.58.21-.91c0-.62-.23-1.12-.7-1.48-.26-.18-.67-.38-1.23-.58-.56-.21-1.28-.41-2.16-.62-1.4-.36-2.57-.79-3.5-1.27-.93-.48-1.66-1.02-2.18-1.62-.44-.49-.77-1.05-.99-1.67-.22-.62-.33-1.3-.33-2.02,0-.91.2-1.73.6-2.47s.95-1.38,1.65-1.93c.7-.54,1.52-.96,2.45-1.25.93-.29,1.91-.43,2.92-.43s2.04.13,3.02.39c.97.26,1.88.63,2.72,1.11.84.48,1.56,1.06,2.16,1.73l-2.65,2.92c-.49-.47-1.03-.88-1.62-1.25-.58-.36-1.17-.65-1.77-.88-.6-.22-1.16-.33-1.67-.33s-.93.05-1.32.14c-.39.09-.71.23-.97.41s-.46.41-.6.68-.21.59-.21.95c.03.31.11.6.25.88.14.27.34.5.6.68.29.18.71.39,1.29.62.57.23,1.31.45,2.22.66,1.27.34,2.34.71,3.19,1.13.86.42,1.53.9,2.02,1.44.49.47.84,1.01,1.05,1.63s.31,1.31.31,2.06c0,1.22-.34,2.31-1.03,3.27s-1.62,1.71-2.8,2.26-2.51.82-3.99.82v.03Z"/>
  </g>
  <path d="M175.91,449.52v-181.59c.33-.23.65-.45.98-.66,26.94,26.86,53.86,53.71,80.63,80.4,41.12-40.88,81.98-81.5,123.31-122.59.15,1.58.35,2.62.35,3.65.02,57.26,0,114.54.09,171.8,0,2.89-.87,4.85-3.06,6.57-5.44,4.28-10.79,8.68-17.05,13.73v-145.59c-34.23,34.34-68.19,68.39-102.89,103.18-21.07-21.25-41.07-41.42-61.74-62.27v172.01c-7.66-2.76-14.64-5.11-21.49-7.79-4.91-1.93-9.71-4.21-14.44-6.57-2.25-1.13-3.53-.8-4.99,1.22-4.01,5.56-8.46,10.82-12.24,16.52-1.88,2.83-4.27,4.02-7.28,4.37-5.71.66-9.9-3.07-13.45-6.36-2.73-2.52-2.85-6.9-.75-11.11,3.53-7.11,6.26-14.62,9.29-21.89-7.1-5.68-13.88-11.14-21.22-17.02-5.19,4.05-10.51,8.29-15.9,12.42-3.54,2.7-6.53,6.36-11.91,5.52-5.65-.89-13.73-10.6-12.15-15.92.84-2.83,3.35-5.22,5.26-7.7,3.74-4.87,7.51-9.74,11.41-14.47,1.51-1.82,1.22-3.09-.14-4.81-4.16-5.29-8.29-10.6-12.15-16.1-1.54-2.19-2.77-2.59-5.2-1.51-7.28,3.26-14.68,6.24-22.04,9.35-3.68,1.55-8.97.26-10.7-3.23-1.97-4.01-6.62-7.25-4.49-12.65.78-1.99,1.75-4.24,3.33-5.52,5.88-4.76,11.97-9.29,18.15-13.66,2.88-2.03,3.24-3.87,1.7-7.07-2.61-5.4-4.88-11-6.75-16.69-1.06-3.2-2.67-3.83-5.64-3.36-7.6,1.22-15.19,2.5-22.85,3.24-2.38.23-5.28-.65-7.33-1.96-4.85-3.14-6.26-15.45-2.52-19.7.69-.8,1.88-1.22,2.92-1.64,7.25-2.95,14.46-6.07,21.83-8.7,3.65-1.3,4.33-3.18,3.65-6.75-1.06-5.61-1.93-11.32-2.08-17-.11-3.75-1.96-4.55-4.87-4.9-7.78-.93-15.56-1.94-23.35-2.8-4.34-.48-8.12-4.05-7.9-8.4.23-4.27-1.24-8.64,1.81-12.81,3.14-4.33,7.63-3.35,11.61-4.02,7.27-1.25,14.65-1.87,22.13-2.77,1.24-8.14,2.55-15.99,3.5-23.91.11-.92-1.48-2.53-2.61-3.01-7.72-3.32-15.54-6.39-23.32-9.59-4.25-1.75-6.65-6.45-5.38-10.9,1.28-4.54,1.28-9.89,6.69-12.13,1.21-.5,2.64-.9,3.89-.74,8.62,1.1,17.21,2.35,25.81,3.6,2.62.38,4.1-.38,5.09-3.12,2.1-5.77,4.52-11.43,7.11-16.99,1.18-2.55.86-3.98-1.45-5.64-6.92-5.05-13.67-10.34-20.48-15.53-3.06-2.34-4.25-7.61-2.17-10.91,2.49-3.96,3.54-9.36,9.3-10.31,1.67-.27,3.63-.39,5.14.21,7.94,3.17,15.83,6.5,23.62,9.99,2.61,1.18,3.98.74,5.64-1.6,4.22-5.92,8.79-11.59,13.37-17.58-5.95-7.67-11.91-15.33-17.85-22.99-2.37-3.04-2.22-8.32.39-11.17,1.73-1.9,3.56-3.72,5.41-5.5,2.94-2.82,7.99-3.18,11.29-.66,7.73,5.88,15.39,11.83,23.18,17.85,6.51-4.88,12.96-9.6,19.17-14.58.69-.56.54-2.88.06-4.08-3.09-7.66-6.41-15.24-9.63-22.85-2.23-5.26-.72-9.66,4.34-12.51,3.89-2.19,7.48-5.73,12.53-3.2,1.4.71,2.97,1.51,3.9,2.7,5.91,7.51,11.67,15.13,17.64,22.96,7.91-3.3,15.74-6.54,23.8-9.9-1.25-8.89-2.32-17.64-3.75-26.33-1.09-6.59,1.33-10.84,7.66-12.48,1.93-.5,3.84-1.02,5.79-1.49,3.77-.92,8.46,1.63,9.93,5.28,3.26,8.05,6.6,16.08,9.8,24.15.87,2.19,1.81,2.97,4.45,2.46,5.73-1.09,11.55-1.72,17.35-2.2,3.75-.32,5.46-1.78,5.77-5.71.63-7.96,1.64-15.87,2.67-23.79.59-4.55,4.85-7.91,9.59-7.93,1.15,0,2.29.02,3.44,0,8.14-.08,11.24,2.74,12.13,10.84.84,7.64,1.66,15.3,2.74,22.9.17,1.15,1.6,2.83,2.67,3.01,7.14,1.24,14.35,2.23,21.55,3.01.83.09,2.26-1.45,2.73-2.52,3.41-7.99,6.56-16.1,10.02-24.06.72-1.64,2.22-3.29,3.78-4.15,5.98-3.29,16.87-.02,19.19,6.29,1.1,3.01.09,6.9-.33,10.34-.83,6.78-2.02,13.52-2.79,20.3-.11.93,1.12,2.55,2.1,2.97,7.05,3.06,14.2,5.91,21.68,8.97,5.46-7.27,11.05-14.64,16.55-22.07,3.35-4.51,7.67-5.64,12.57-2.89,3.75,2.1,8.52,3.26,9.35,8.5.29,1.82.63,3.95,0,5.56-3.12,7.96-6.48,15.83-9.95,23.63-1.09,2.46-.53,3.77,1.57,5.26,5.23,3.75,10.37,7.64,15.37,11.68,1.81,1.46,3.04,1.46,4.79.06,6.48-5.17,13.08-10.17,19.56-15.33,4.19-3.33,9.25-3.29,12.86.66,3.03,3.32,8.08,5.59,6.78,11.47-.35,1.58-.65,3.35-1.57,4.58-5.64,7.55-11.46,14.97-17.27,22.5,4.94,6.48,9.68,12.9,14.74,19.08.65.8,3.12.77,4.4.26,7.4-2.95,14.86-5.86,21.99-9.42,3.9-1.94,6.92-.65,9.92,1.09,3.72,2.14,7.28,11.86,5.97,15.93-.48,1.49-1.6,3-2.85,3.96-6.53,5.11-13.11,10.16-19.84,15.01-2.11,1.52-2.17,2.85-1.21,5.02,2.7,6,5.34,12.04,7.67,18.18.99,2.59,2.35,3.06,4.87,2.65,8.44-1.33,16.88-2.79,25.37-3.45,2.34-.18,6.27,1.67,7.05,3.59,2,4.93,5.35,10.17,2.19,15.8-1.01,1.79-2.83,3.56-4.7,4.39-7.16,3.15-14.49,5.97-21.8,8.77-2.56.98-3.38,2.23-2.83,5.14,1.37,7.3,2.26,14.67,3.44,22.64,6.71.86,13.64,1.48,20.47,2.71,4.24.77,9.07-.5,12.34,4.19,3.6,5.17,2.67,16.85-2.68,20-2.41,1.42-5.71,1.43-8.65,1.81-5.65.72-11.33,1.34-17.02,1.84-3.39.29-4.87,1.52-5,5.29-.21,5.83-1.16,11.65-2.11,17.44-.53,3.23-.33,5.12,3.38,6.38,6.74,2.28,13.13,5.55,19.85,7.9,3.75,1.31,5.41,3.92,6.41,7.27,1.36,4.57-2.98,14.59-7.39,16.32-2.08.81-4.75.57-7.08.27-6.9-.87-13.78-2.11-20.7-2.91-1.06-.12-2.91,1.01-3.33,2.02-2.88,6.84-5.61,13.75-8.05,20.76-.38,1.1.45,3.29,1.45,4.08,5.53,4.51,11.18,8.91,17.03,13.01,2.89,2.03,4.1,4.42,4.19,7.84.15,5.85-6.39,14.32-12.07,15.07-.99.14-2.14-.42-3.14-.84-6.84-2.83-13.7-5.64-20.48-8.65-2.26-1.01-3.42-.63-4.85,1.45-4.07,5.88-8.35,11.62-12.77,17.24-1.55,1.97-1.54,3.18.05,5.11,4.43,5.43,8.62,11.05,12.89,16.6,2.83,3.68,2.61,9.06-.83,12.28-3.12,2.92-5.29,7.61-10.64,6.95-2.13-.27-4.49-.87-6.18-2.1-5.55-4.02-10.79-8.47-16.31-12.54-.9-.68-3.09-.87-3.89-.27-6.81,5.2-13.43,10.66-20.48,16.32,2.7,6.3,5.52,12.81,8.29,19.34,2.98,7.07,1.84,10.52-4.79,14.46-3.51,2.08-6.87,5.03-11.4,2.76-1.55-.78-3.3-1.61-4.34-2.91-3.84-4.79-7.57-9.68-11.05-14.74-2.03-2.94-3.75-3.57-7.3-1.99-9.99,4.46-20.26,8.31-31.07,12.66v-4.49c0-44.38-.05-88.77.11-133.14,0-2.25,1.19-4.96,2.73-6.62,5.37-5.85,11.11-11.33,17.42-17.67v121.23c2-.86,3.44-1.39,4.79-2.07,17.35-8.74,33.61-19.23,47.74-32.56,12.89-12.16,22.62-26.92,31.31-42.31,16.57-29.39,26.14-61,27.84-94.63.89-17.65-3.07-34.98-7.87-51.97-9.13-32.33-24.77-61.23-47.16-86.25-10.08-11.26-22.67-19.69-35.51-27.55-24.18-14.8-50.07-25.32-78.27-28.97-42.43-5.49-82.53,2.49-120.1,22.9-52.86,28.71-83.34,73.99-96.57,131.68-2.68,11.65-4.57,23.69-4.99,35.62-.57,16.2,2.76,32.15,6.95,47.81,9,33.61,24.8,63.71,48.13,89.52,12.47,13.79,28.19,23.74,44.39,32.75,4.7,2.61,9.56,4.93,15.31,7.87v-.03Z" fill="#ffbd49"/>
  <path d="M153.42,419.66c-6.07-5.14-12.25-10.17-18.15-15.53-.98-.89-.99-3.14-.99-4.76-.05-70.57-.03-141.14-.03-211.73v-24.39c41.57,41.48,82.48,82.28,123.66,123.37,40.92-41.06,81.52-81.77,122.09-122.5.41.17.8.35,1.21.51,0,6.63-.41,13.28.12,19.87.47,5.8-1.58,9.71-5.67,13.75-38.5,38.01-76.78,76.25-115.13,114.42-.8.78-1.66,1.51-2.73,2.49-34.13-33.96-68.15-67.8-103.04-102.51v206.24c-.44.26-.89.51-1.33.77h-.02Z" fill="#fff"/>
</svg>